{
  "accessors": [
    {
      "bufferView": 1,
      "componentType": 5126,
      "count": 55182,
      "max": [
        17.5140380859375,
        17.757326126098633,
        1.4586929082870483
      ],
      "min": [
        -17.5178279876709,
        -17.745454788208008,
        -0.5532653331756592
      ],
      "type": "VEC3"
    },
    {
      "bufferView": 1,
      "byteOffset": 662184,
      "componentType": 5126,
      "count": 55182,
      "max": [
        0.9999990463256836,
        0.9999998807907104,
        1.0
      ],
      "min": [
        -0.9999997615814209,
        -0.9999996423721313,
        -1.0
      ],
      "type": "VEC3"
    },
    {
      "bufferView": 0,
      "componentType": 5125,
      "count": 288630,
      "type": "SCALAR"
    }
  ],
  "asset": {
    "extras": {
      "author": "CadForCam (https://sketchfab.com/yuelands)",
      "license": "CC-BY-4.0 (http://creativecommons.org/licenses/by/4.0/)",
      "source": "https://sketchfab.com/3d-models/escudo-fcb-d97020bb0bf74ac48aee15093622a868",
      "title": "Escudo FCB"
    },
    "generator": "Sketchfab-12.67.0",
    "version": "2.0"
  },
  "bufferViews": [
    {
      "buffer": 0,
      "byteLength": 1154520,
      "name": "floatBufferViews",
      "target": 34963
    },
    {
      "buffer": 0,
      "byteLength": 1324368,
      "byteOffset": 1154520,
      "byteStride": 12,
      "name": "floatBufferViews",
      "target": 34962
    }
  ],
  "buffers": [
    {
      "byteLength": 2478888,
      "uri": "scene.bin"
    }
  ],
  "materials": [
    {
      "doubleSided": true,
      "name": "Scene_-_Root",
      "pbrMetallicRoughness": {
        "baseColorFactor": [
          0.5,
          0.5,
          0.5,
          1.0
        ],
        "metallicFactor": 0.0,
        "roughnessFactor": 0.6
      }
    }
  ],
  "meshes": [
    {
      "name": "Object_0",
      "primitives": [
        {
          "attributes": {
            "NORMAL": 1,
            "POSITION": 0
          },
          "indices": 2,
          "material": 0,
          "mode": 4
        }
      ]
    }
  ],
  "nodes": [
    {
      "children": [
        1
      ],
      "matrix": [
        1.0,
        0.0,
        0.0,
        0.0,
        0.0,
        2.220446049250313e-16,
        -1.0,
        0.0,
        0.0,
        1.0,
        2.220446049250313e-16,
        0.0,
        0.0,
        0.0,
        0.0,
        1.0
      ],
      "name": "Sketchfab_model"
    },
    {
      "children": [
        2
      ],
      "name": "FCB_Solid_B.stl.cleaner.gles"
    },
    {
      "mesh": 0,
      "name": "Object_2"
    }
  ],
  "scene": 0,
  "scenes": [
    {
      "name": "Sketchfab_Scene",
      "nodes": [
        0
      ]
    }
  ]
}
